<?xml version="1.0" encoding="UTF-8" ?>
<!DOCTYPE svg PUBLIC "-//W3C//DTD SVG 1.1//EN" "http://www.w3.org/Graphics/SVG/1.1/DTD/svg11.dtd">
<svg width="512pt" height="512pt" viewBox="0 0 512 512" version="1.1" xmlns="http://www.w3.org/2000/svg">
<g id="#000000ff">
<path fill="#000000" opacity="1.00" d=" M 18.75 63.71 C 36.00 46.07 64.01 39.76 86.95 49.08 C 93.45 51.68 95.05 61.17 89.86 65.82 C 86.36 69.43 80.95 68.95 76.58 67.47 C 60.29 62.30 41.30 68.23 30.66 81.55 C 23.10 90.77 19.55 103.19 21.29 115.00 C 22.84 126.88 29.67 137.90 39.50 144.70 C 45.12 148.61 51.67 150.82 58.06 153.12 C 151.81 187.28 245.57 221.43 339.33 255.59 C 366.18 226.67 392.99 197.70 419.83 168.77 C 422.14 166.19 425.45 164.26 429.03 164.65 C 434.63 164.92 439.31 170.40 438.49 176.00 C 437.47 184.73 435.98 193.41 434.83 202.13 C 440.61 199.80 446.16 196.90 452.06 194.87 C 459.14 192.47 466.82 199.87 464.75 207.04 C 461.93 216.37 458.35 225.47 455.27 234.73 C 466.55 243.86 472.01 259.38 468.64 273.55 C 479.33 284.82 490.14 295.97 500.89 307.19 C 503.44 309.79 505.60 313.24 505.00 317.05 C 504.50 322.22 499.79 325.21 495.94 327.94 C 479.26 339.70 458.22 345.51 437.90 342.65 C 422.36 340.65 407.70 333.60 395.94 323.32 C 394.18 326.26 392.45 329.22 390.74 332.19 C 398.90 342.95 407.05 353.71 415.27 364.43 C 436.19 367.01 457.12 369.49 478.02 372.19 C 482.95 372.68 487.34 376.89 487.42 381.95 C 487.39 385.52 486.76 389.13 485.49 392.48 C 483.84 396.75 479.10 399.25 474.63 398.73 C 447.72 396.05 420.80 393.34 393.89 390.62 C 390.68 390.36 387.60 388.97 385.49 386.51 C 378.74 378.93 372.15 371.20 365.45 363.57 C 363.87 364.89 362.29 366.22 360.73 367.55 C 370.04 386.75 379.35 405.95 388.71 425.13 C 409.10 427.66 429.51 430.10 449.89 432.68 C 455.48 433.10 460.33 438.25 459.62 443.98 C 459.13 448.29 458.67 453.18 455.45 456.42 C 453.04 458.87 449.43 459.64 446.11 459.23 C 419.40 456.52 392.67 453.90 365.96 451.15 C 362.61 450.91 359.51 449.28 357.35 446.72 C 341.27 428.32 325.26 409.85 309.18 391.44 C 297.14 393.49 284.87 394.44 272.67 393.43 C 245.56 391.26 219.33 381.83 196.06 367.93 C 178.55 357.94 161.07 347.88 143.54 337.92 C 121.61 357.61 99.65 377.25 77.73 396.95 C 83.48 415.37 89.45 433.73 95.11 452.17 C 96.94 457.70 93.02 464.14 87.30 465.11 C 82.24 465.98 77.11 466.50 72.02 467.10 C 66.98 467.85 61.92 464.52 60.54 459.64 C 52.86 435.89 45.38 412.08 37.74 388.32 C 36.88 385.59 35.82 382.83 35.84 379.94 C 36.14 376.45 37.83 373.31 39.08 370.11 C 48.70 346.54 58.35 322.99 67.93 299.41 C 54.05 284.02 43.91 264.76 41.44 244.02 C 38.16 219.97 45.32 195.72 56.83 174.75 C 45.91 170.62 34.31 167.37 25.07 159.89 C 10.07 148.46 0.82 130.17 0.00 111.37 L 0.00 106.02 C 0.96 90.28 7.52 74.86 18.75 63.71 Z" />
<path fill="#000000" opacity="1.00" d=" M 480.17 435.81 C 475.28 426.75 480.98 414.32 491.02 412.11 C 500.92 409.20 511.71 417.33 512.00 427.56 L 512.00 429.10 C 511.64 434.16 509.13 439.04 504.94 441.96 C 497.04 448.04 484.32 444.86 480.17 435.81 Z" />
</g>
</svg>
