<?xml version="1.0" encoding="UTF-8" ?>
<!DOCTYPE svg PUBLIC "-//W3C//DTD SVG 1.1//EN" "http://www.w3.org/Graphics/SVG/1.1/DTD/svg11.dtd">
<svg width="512pt" height="512pt" viewBox="0 0 512 512" version="1.1" xmlns="http://www.w3.org/2000/svg">
<g id="#000000ff">
<path fill="#000000" opacity="1.00" d=" M 194.51 0.00 L 195.62 0.00 C 199.24 0.35 202.72 2.07 204.88 5.05 C 211.05 13.28 216.89 21.75 223.04 30.00 C 225.62 23.91 228.02 17.74 230.61 11.66 C 232.06 8.04 235.04 4.93 238.91 4.03 C 244.25 2.51 250.27 5.40 252.59 10.41 C 257.39 20.39 261.89 30.51 266.60 40.54 C 283.64 38.84 300.88 47.71 309.63 62.37 C 328.77 63.13 347.93 63.69 367.07 64.54 C 373.36 64.73 378.72 70.70 378.14 76.99 C 375.51 102.61 362.72 127.32 342.38 143.32 C 328.91 154.08 312.28 160.57 295.21 162.61 C 312.93 172.00 326.70 187.47 336.11 205.00 C 355.73 200.33 375.33 195.59 394.96 190.96 C 400.06 189.48 405.95 191.79 408.52 196.48 C 410.12 199.45 410.32 202.90 410.93 206.17 C 412.97 218.80 415.16 231.41 417.17 244.05 C 418.17 248.89 416.17 254.32 411.82 256.85 C 408.34 258.83 404.61 260.35 400.89 261.80 C 395.41 264.02 388.62 261.26 386.12 255.94 C 383.13 250.04 380.47 243.97 377.60 238.01 C 368.44 241.92 359.31 245.88 350.16 249.81 C 354.44 278.77 352.23 308.28 347.13 336.97 C 340.27 374.85 328.31 411.59 314.45 447.43 C 328.59 450.58 342.80 456.36 352.83 467.18 C 361.58 475.93 365.91 488.64 365.35 500.90 C 365.10 507.00 359.58 511.74 353.65 512.00 L 190.33 512.00 C 177.11 511.74 163.80 510.62 151.04 506.96 C 135.48 502.64 120.64 494.17 110.82 481.12 C 99.86 466.84 95.51 448.66 94.72 430.96 C 94.53 426.06 93.90 420.36 97.48 416.44 C 101.83 410.98 111.06 411.04 115.39 416.51 C 119.12 420.77 118.16 426.82 118.59 432.04 C 119.40 447.33 124.20 463.60 136.47 473.63 C 149.49 484.52 166.98 486.89 183.33 487.97 C 183.36 329.64 183.32 171.32 183.35 13.00 C 182.90 6.51 187.97 0.47 194.51 0.00 Z" />
</g>
</svg>
