<?xml version="1.0" encoding="utf-8"?>
<!-- Generator: Adobe Illustrator 25.4.1, SVG Export Plug-In . SVG Version: 6.00 Build 0)  -->
<svg version="1.1" id="Layer_1" xmlns="http://www.w3.org/2000/svg" xmlns:xlink="http://www.w3.org/1999/xlink" x="0px" y="0px"
	 viewBox="0 0 512 512" style="enable-background:new 0 0 512 512;" xml:space="preserve">
<g>
	<g>
		<path d="M418.18,60.14c-9.06-4.8-19.43-6.73-29.63-6.36c-10.26,0.31-20.83-1.07-30.76,2.2c-6.98,1.99-13.14,5.92-19.2,9.79
			c-13.5,9.7-24.97,22.22-33.5,36.48c-7.09,11.78-9.3,26.11-7.11,39.6c-3.73,4.96-6.98,10.6-12.31,14.06
			c-3.63,2.45-7.96,3.62-12.27,4.08c-54.62,5.23-109.25,10.34-163.86,15.6c-17.82,1.69-34.84,9.64-47.76,22
			c-2.73-2.29-5.59-4.44-8.05-7.03c-8.84-8.83-13.3-21.47-12.75-33.87c0.68-18.1,8.27-35.06,16.97-50.64
			c2.63-4.97,6.22-9.41,8.35-14.63c2.36-6.4-3.02-13.89-9.76-13.99c-4.15-0.34-7.55,2.4-10.53,4.89
			c-12.79,9.85-23.41,22.37-31.67,36.21c-9.57,15.92-15.85,34-16.8,52.63v5.09c0.76,16.19,6.76,31.97,16.72,44.73
			c6.69,8.66,14.91,16.12,24.08,22.09c-1.09,14.19-0.61,28.42-0.71,42.64c-0.09,9.33,0.65,18.9-2.17,27.93
			c-1.92,6.7-5.71,12.65-9.82,18.21c-5.78,7.9-11.5,15.85-17.29,23.75c-2.15,2.57-3.26,5.9-2.45,9.24
			c4.65,30.99,9.11,62.01,13.84,92.98c1.64,10.91,11.71,19.69,22.76,19.74c15.69,0.14,31.39-0.03,47.08,0.08
			c3-0.04,6.48,0.14,8.76-2.18c2.53-2.17,2.37-5.76,2.42-8.79c-0.08-4.7,0.24-9.44-0.5-14.09c-1.27-7.47-6.5-14.06-13.44-17.07
			c-8.69-3.73-17.6-6.93-26.27-10.69c0.21-14.61,0-29.22,0.1-43.83c8.98-2.9,17.71-6.58,26.03-11.02
			c1.59-0.85,13.61-7.37,23.54-15.61c21.17-17.54,31.83-42.02,36.26-53.94c9.64-5.44,28.31-14.16,52.94-14.47
			c42.44-0.53,71.1,24.34,78.13,30.81c5.3,67.76,8.04,114.69,6.76,131.44c-0.19,2.45-0.38,9.9,3.55,17.16
			c4.01,7.41,12.16,12.24,20.58,12.21c16.37,0.05,32.75,0.1,49.12-0.02c4.28,0.11,7.88-3.65,7.67-7.9
			c-0.14-8.47,1.26-17.7-3.21-25.37c-2.83-5.18-7.89-8.54-13.08-11.04c-5.18-2.57-10.35-5.16-15.53-7.75
			c2.6-34.21,12.31-67.74,27.49-98.46c8.9-17.26,19.22-33.75,27.44-51.35c1.42-2.97,2.84-5.94,4.5-8.78
			c4.24,2.02,9.14,2.88,13.74,1.65c8.18-1.91,14.5-9.66,14.71-18.07c0.18-6.51,0.62-13.67-3.16-19.35c-2.2-3.59-5.8-5.94-9.49-7.78
			c3.38-13.15,6.19-26.56,6.41-40.2c20.14-0.32,40.29-3.14,59.48-9.33c5.09-1.72,9.74-4.99,12.62-9.58
			c2.39-3.5,3.27-7.72,4.22-11.77c6.01-2.64,11.22-7.39,13.45-13.66c2.43-7.29,3.21-14.99,4.73-22.49v-2.31
			c-0.61-6.34-5.16-12.1-11.37-13.76c-15.31-4.38-30.67-8.62-46.01-12.91c-3.48-0.8-5.62-3.87-8.17-6.1
			C435.69,73.87,428.42,64.93,418.18,60.14z M394.09,68.91c9.02,0.32,17.92,3.66,24.79,9.55c5.59,4.7,10.69,9.95,16.08,14.87
			c3.19,2.86,6.02,6.54,10.37,7.64c16.4,4.61,32.82,9.16,49.21,13.8c-1.05,6.1-2.07,12.23-3.52,18.25
			c-1.18,4.53-6.12,6.49-10.43,6.06c-5.43-0.69-41.81-5.17-56.15-1.87c-2.73,0.63-5.37,1.69-5.37,1.69
			c-10,4.01-17.32,12.05-16.38,13.45c0.67,1,5.77-1.14,7.86-2.25c8.13-4.32,25.25-6.44,65.08,4.08c-2.23,5.69-8.86,6.21-13.92,7.75
			c-14.73,3.75-29.88,6.26-45.12,6.14c-8.57-0.15-17.45-0.32-25.42-3.87c-2.87-1.38-6.55-2.24-9.28-0.07
			c-4.15,2.71-4.18,9.57,0.11,12.17c5.48,3.16,11.72,4.81,17.94,5.74c0.13,12.05-2.4,23.93-5.35,35.55
			c-21.76-5.03-43.14-12.68-62.06-24.7c-3.32-2.06-6.36-4.66-10.01-6.14c-4.82-1.73-10.26,2.89-9.51,7.91
			c0.38,4.13,4.39,6.14,7.42,8.21c19.65,13.46,42.16,22.14,65.11,28.08c-4.12,6.5-3.09,14.39-3.18,21.69
			c-3.54,8.25-7.53,16.33-11.32,24.47c-5.98,11.01-12.04,21.96-18.16,32.89c-11.49,20.38-19.93,42.36-26.05,64.91
			c-4.68,17.91-8.07,36.26-8.56,54.8c-0.2,3,1.63,5.84,4.3,7.12c7.88,4.15,16.04,7.76,23.81,12.09c4.76,2.84,3.88,8.97,3.9,13.68
			c-12.92,0.05-25.84-0.02-38.76,0.04c-2.77-0.02-5.81,0.03-8.13-1.75c-2.61-1.81-3.5-5.09-3.68-8.1
			c-3.8-46.38-7.68-92.76-11.5-139.14c-0.13-2.95-1.35-6.08-4.17-7.42c-4.15-1.97-10.95,3.56-10.54,4.5
			c0.42,0.97,9.59-0.12,10.69-3.32c2.42-7.01-30.92-33.06-69.62-36.77c-34.93-3.35-69.94,11.92-69.98,22.03
			c-0.01,2.31,1.79,6.63,2.07,6.56c0.3-0.07,0-5.93-2.07-6.56c-2.39-0.73-6.39,5.76-7.41,7.57c-17.01,30.13-45.06,53.94-77.79,65.32
			c-3.26,1.1-6.67,1.79-9.82,3.22c-2.92,1.4-4.1,4.8-3.93,7.87c0.02,17.7-0.05,35.41,0.03,53.12c-0.07,3.05,1.78,6.01,4.66,7.14
			c10.34,4.43,21,8.16,31.25,12.79c4.69,2.5,4.29,8.37,4.15,12.9c-13.39,0.02-26.78-0.02-40.17,0.02c-2.53-0.03-5.28-0.03-7.42-1.61
			c-2.52-1.59-3.53-4.59-3.92-7.4c-4.4-29.95-8.9-59.88-13.28-89.83c4.89-6.67,9.74-13.38,14.61-20.06
			c4.74-6.46,9.56-13.04,12.41-20.59c3.41-8.02,4.58-16.78,4.68-25.43c0.03-14.35-0.04-28.7,0.03-43.05
			c0.05-10.98,2.83-21.95,8.25-31.51c7.81-14.02,21.06-24.93,36.38-29.76c8.27-2.78,17.05-3.16,25.67-4.02
			c50.51-4.8,101.03-9.59,151.55-14.39c4.42-0.38,8.72-1.49,12.9-2.93c2.6,3.13,4.78,7.55,9.24,8.18c4.28,0.78,8.51-3.12,8.33-7.41
			c-0.06-3.69-3.05-6.28-5.08-9.05c1.64-1.9,3.28-3.81,4.92-5.72c3.29,4.23,7.37,7.91,12.27,10.16c8.29,3.67,17.69,4.26,26.54,2.68
			c8.56-1.56,16.72-6.2,21.68-13.45c8.35-10.91,10.3-24.85,13.74-37.76c1.88-6.81,2.8-14.22,7.23-19.96
			c1.98-2.55,4.49-5.5,3.49-8.98c-0.84-4.74-6.93-7.43-10.96-4.75c-5.39,3.67-8,9.97-10.39,15.78c-3.93,11.32-5.68,23.26-9.22,34.7
			c-2.03,5.97-4.73,12.16-9.96,16.01c-5.61,4.14-13.04,4.72-19.75,3.85c-5.87-0.76-11.28-4.34-14.06-9.6
			c-3.85-7.32-3.95-16.03-2.47-23.99c1.5-8.11,6.13-15.13,10.86-21.69c6.56-8.7,14.25-16.61,23.14-22.94
			c7.57-5.11,16.27-9.55,25.64-9.3C379.76,68.85,386.93,68.65,394.09,68.91z M38.58,110.33c-6.46,13.95-11.95,28.74-12.61,44.27
			c-0.79,14.35,3.04,29.16,11.93,40.61c3.84,5.4,9.11,9.48,14.09,13.76c-3.77,5.96-7.1,12.15-9.62,18.73
			c-11.63-8.61-21.55-20.14-26.27-33.98c-5.29-14.84-4.13-31.3,0.94-46.03C21.76,134.05,28.88,121.06,38.58,110.33z M404.31,237.92
			c2.65,1.65,1.93,5.13,2.09,7.75c-0.15,2.63,0.55,6.12-2.13,7.74c-2.41,1.76-6.26,0.2-6.76-2.73c-0.33-3.33-0.33-6.7,0-10.03
			C397.98,237.67,401.89,236.15,404.31,237.92z"/>
	</g>
	<path d="M416.09,94.29c-5.1-1.88-10.89,3.21-9.56,8.51c0.77,5.49,8.26,7.92,12.2,4.09C423.04,103.44,421.39,95.75,416.09,94.29z"/>
</g>
<path d="M141.79,316.43"/>
<path d="M459.74,196.26"/>
<path d="M161.35,192.3c5.76,3.97,8.39,8.59,9.7,11.85c6.41,15.9-1.69,41.37-21.45,61.55c3.54-8.1,7.92-20.22,10.38-35.75
	C162.43,214.58,162.12,201.42,161.35,192.3z"/>
<path d="M182.52,192.3c5.76,3.97,8.39,8.59,9.7,11.85c6.41,15.9-1.69,41.37-21.45,61.55c3.54-8.1,7.92-20.22,10.38-35.75
	C183.6,214.58,183.29,201.42,182.52,192.3z"/>
<path d="M202.94,192.3c5.76,3.97,8.39,8.59,9.7,11.85c6.41,15.9-1.69,41.37-21.45,61.55c3.54-8.1,7.92-20.22,10.38-35.75
	C204.03,214.58,203.72,201.42,202.94,192.3z"/>
</svg>
