<?xml version="1.0" encoding="UTF-8" ?>
<!DOCTYPE svg PUBLIC "-//W3C//DTD SVG 1.1//EN" "http://www.w3.org/Graphics/SVG/1.1/DTD/svg11.dtd">
<svg width="512pt" height="512pt" viewBox="0 0 512 512" version="1.1" xmlns="http://www.w3.org/2000/svg">
<g id="#000000ff">
<path fill="#000000" opacity="1.00" d=" M 456.66 95.66 C 462.85 93.11 470.54 97.39 471.38 104.08 C 472.06 107.49 470.56 110.81 468.62 113.52 C 464.66 119.18 460.66 124.81 456.75 130.49 C 461.78 130.88 466.86 130.85 471.88 131.47 C 477.37 132.11 481.69 137.55 481.10 143.05 C 480.95 146.18 479.09 148.86 476.91 150.97 C 471.08 156.63 465.21 162.25 459.41 167.92 C 464.66 180.45 462.73 195.62 454.11 206.18 C 457.82 218.88 461.82 231.50 465.70 244.15 C 466.79 247.94 468.46 251.99 467.20 255.95 C 466.14 259.77 462.74 262.60 458.93 263.44 C 436.31 268.45 411.20 263.73 393.01 249.06 C 382.67 241.20 375.03 230.28 369.80 218.48 C 361.50 223.25 353.22 228.05 344.96 232.87 C 343.40 242.40 341.98 251.96 340.32 261.47 C 338.20 271.99 334.60 283.15 325.60 289.82 C 325.59 321.86 325.60 353.90 325.60 385.93 C 325.54 389.62 325.89 393.38 325.10 397.02 C 324.06 401.62 319.60 405.04 314.92 405.10 C 310.59 405.31 306.21 405.50 301.93 404.77 C 297.28 403.77 294.19 399.37 293.64 394.82 C 288.29 360.98 282.99 327.13 277.65 293.28 C 261.41 290.14 245.15 287.05 228.91 283.89 C 212.09 280.35 195.34 276.51 178.51 273.01 C 175.62 276.93 172.94 281.02 169.59 284.58 C 164.31 290.40 157.69 294.72 151.50 299.48 C 128.57 316.68 105.64 333.88 82.72 351.10 C 85.09 364.14 87.44 377.18 89.85 390.21 C 90.34 392.93 90.73 395.85 89.53 398.46 C 87.92 402.66 83.48 405.36 79.03 405.19 C 74.33 405.19 69.59 405.51 64.92 404.86 C 60.18 404.02 56.85 399.62 56.24 395.00 C 52.37 373.95 48.44 352.91 44.65 331.85 C 43.85 328.12 44.93 324.29 47.23 321.32 C 55.91 309.47 64.65 297.66 73.33 285.81 C 65.87 270.22 60.46 253.38 59.92 235.98 C 59.08 216.45 64.94 196.62 76.77 181.00 C 71.36 179.22 65.81 177.82 60.63 175.42 C 38.36 166.27 19.15 150.01 6.26 129.69 C 3.94 125.65 1.05 121.81 0.00 117.18 L 0.00 116.53 C -0.02 110.65 4.96 105.20 10.97 105.37 C 15.65 105.28 19.43 108.64 21.44 112.60 C 33.77 135.35 55.78 152.52 80.72 159.31 C 96.36 164.36 112.98 162.74 129.09 161.80 C 182.42 158.87 235.75 155.88 289.08 152.98 C 292.89 152.85 296.36 151.12 299.93 149.96 C 352.18 131.88 404.40 113.70 456.66 95.66 Z" />
<path fill="#000000" opacity="1.00" d=" M 416.09 339.43 C 433.01 336.89 450.27 336.67 467.25 338.79 C 476.01 339.87 484.80 341.59 492.95 345.10 C 495.97 346.50 498.88 348.37 500.98 351.01 C 503.03 353.56 503.44 356.93 504.20 360.02 C 506.77 371.28 509.32 382.55 512.00 393.78 L 512.00 395.54 C 511.42 399.07 509.48 402.35 506.54 404.43 C 499.37 409.60 490.63 411.87 482.10 413.70 C 460.97 417.65 439.22 417.94 417.89 415.58 C 405.77 413.92 393.14 411.93 382.65 405.23 C 378.23 402.61 374.96 397.31 376.44 392.09 C 379.22 380.08 381.98 368.06 384.76 356.05 C 385.63 351.27 389.58 347.89 393.69 345.78 C 400.72 342.39 408.41 340.65 416.09 339.43 M 398.03 357.18 C 412.31 363.85 428.48 364.29 443.97 364.82 C 459.49 364.29 475.69 363.85 490.01 357.17 C 475.73 350.44 459.52 350.00 444.03 349.46 C 428.52 349.99 412.30 350.44 398.03 357.18 Z" />
</g>
</svg>
