<?xml version="1.0" encoding="UTF-8" ?>
<!DOCTYPE svg PUBLIC "-//W3C//DTD SVG 1.1//EN" "http://www.w3.org/Graphics/SVG/1.1/DTD/svg11.dtd">
<svg width="512pt" height="512pt" viewBox="0 0 512 512" version="1.1" xmlns="http://www.w3.org/2000/svg">
<g id="#000000ff">
<path fill="#000000" opacity="1.00" d=" M 353.34 0.00 L 354.18 0.00 C 358.91 0.54 363.17 3.80 364.55 8.41 C 367.55 18.17 370.14 28.06 373.04 37.85 C 377.66 32.88 382.08 27.72 386.77 22.82 C 390.02 19.27 395.46 17.96 399.90 19.93 C 403.97 21.55 406.74 25.62 407.07 29.95 C 408.09 40.66 409.03 51.38 409.86 62.10 C 426.10 66.44 439.34 80.16 442.42 96.78 C 459.48 103.75 476.60 110.54 493.66 117.50 C 497.71 119.05 501.16 122.49 501.76 126.92 C 502.55 131.06 500.53 134.94 498.36 138.30 C 489.31 154.61 475.68 168.56 459.03 177.12 C 443.09 185.73 424.50 188.75 406.54 186.97 C 406.52 247.65 406.54 308.34 406.53 369.02 C 406.85 374.26 405.85 379.70 407.04 384.81 C 429.42 421.41 452.09 457.85 474.85 494.23 C 479.54 501.33 474.00 511.64 465.59 512.00 L 421.46 512.00 C 417.25 511.65 413.62 509.07 411.54 505.47 C 388.37 469.92 365.19 434.38 341.99 398.85 C 341.24 398.94 339.73 399.12 338.98 399.21 C 340.36 416.37 336.73 433.73 328.83 449.00 C 342.72 452.52 356.56 458.86 365.81 470.16 C 373.10 478.58 376.58 490.02 376.07 501.06 C 375.80 507.05 370.44 511.79 364.56 512.00 L 137.57 512.00 C 117.10 511.38 96.71 506.69 78.28 497.69 C 49.25 483.76 25.14 459.78 11.32 430.68 C 9.81 427.44 9.59 423.50 11.24 420.27 C 13.81 414.85 20.88 412.20 26.35 414.76 C 30.51 416.50 32.53 420.82 34.50 424.58 C 51.33 457.03 83.92 480.61 119.94 486.71 C 131.03 488.83 142.36 488.51 153.59 488.49 C 144.75 480.40 137.34 470.75 131.91 460.07 C 122.86 442.55 118.96 422.85 117.56 403.32 C 116.03 377.73 120.56 351.88 130.17 328.14 C 150.79 277.37 193.36 236.48 244.09 216.23 C 252.37 212.45 261.24 210.30 269.87 207.52 C 294.09 141.10 318.03 74.58 342.24 8.16 C 343.79 3.42 348.39 0.18 353.34 0.00 Z" />
</g>
</svg>
