<?xml version="1.0" encoding="UTF-8" ?>
<!DOCTYPE svg PUBLIC "-//W3C//DTD SVG 1.1//EN" "http://www.w3.org/Graphics/SVG/1.1/DTD/svg11.dtd">
<svg width="512pt" height="512pt" viewBox="0 0 512 512" version="1.1" xmlns="http://www.w3.org/2000/svg">
<g id="#000000ff">
<path fill="#000000" opacity="1.00" d=" M 275.44 40.79 C 281.53 39.45 287.79 39.84 293.97 39.81 C 319.63 39.83 345.30 39.79 370.96 39.83 C 381.66 39.81 392.37 42.77 401.43 48.51 C 408.14 52.62 413.42 58.56 418.98 64.04 C 424.50 69.50 429.93 75.07 435.51 80.47 C 443.77 88.43 454.53 93.75 465.87 95.50 C 475.91 97.04 486.12 95.52 496.19 96.58 C 504.82 97.70 511.39 105.57 512.00 114.08 L 512.00 115.34 C 511.68 119.26 510.31 123.02 508.28 126.37 C 502.41 136.13 496.55 145.90 490.70 155.67 C 486.47 162.86 480.85 169.19 474.23 174.26 C 461.87 183.70 446.72 190.15 431.00 190.17 C 412.66 190.22 394.32 190.17 375.98 190.19 C 375.96 202.86 375.99 215.53 375.96 228.19 C 387.09 237.06 396.80 247.93 403.18 260.72 C 411.83 277.29 415.08 296.56 412.62 315.08 C 409.59 343.10 392.02 368.36 368.30 383.08 C 366.94 394.22 365.53 405.34 364.16 416.48 C 381.74 418.82 398.33 429.52 406.56 445.39 C 411.45 454.70 406.21 467.15 396.49 470.77 C 392.20 472.45 387.49 472.17 382.97 472.21 C 362.31 472.16 341.64 472.20 320.97 472.19 C 313.94 472.54 306.79 468.96 303.33 462.74 C 300.60 458.34 300.73 452.99 300.76 448.00 C 300.81 430.99 300.77 413.99 300.78 396.98 C 287.38 396.96 273.99 396.98 260.59 396.97 C 268.23 366.92 257.56 333.98 236.06 312.14 C 231.60 316.53 227.15 320.93 222.70 325.33 C 235.11 338.11 243.11 355.20 244.15 373.04 C 245.22 388.03 241.25 403.05 233.82 416.03 C 249.70 417.59 265.10 425.22 275.37 437.53 C 279.37 442.38 282.29 448.57 281.83 454.99 C 281.05 463.28 274.22 470.45 266.05 471.87 C 262.05 472.41 258.00 472.15 253.98 472.19 C 179.32 472.18 104.66 472.19 30.00 472.19 C 23.20 472.33 16.27 470.45 10.91 466.17 C 4.39 461.20 0.53 453.27 0.00 445.15 L 0.00 443.05 C 0.41 437.74 1.94 432.44 5.03 428.05 C 10.13 420.55 19.00 415.90 28.06 415.85 C 46.46 415.67 64.88 415.84 83.29 415.77 C 77.95 403.26 74.58 389.68 75.41 376.00 C 75.79 354.05 84.43 332.38 99.18 316.14 C 106.71 307.50 116.04 300.65 125.79 294.72 C 161.76 271.64 198.95 250.56 235.66 228.70 C 236.95 227.95 238.36 227.18 239.92 227.43 C 261.36 229.23 283.16 220.46 298.09 205.09 C 310.21 192.77 317.90 176.16 319.25 158.91 C 320.08 149.63 319.05 140.29 319.97 131.02 C 321.24 119.50 328.61 109.32 338.37 103.33 C 338.38 96.51 338.38 89.69 338.37 82.86 C 321.46 89.02 307.61 103.36 302.94 120.83 C 298.70 135.18 302.62 150.38 299.38 164.87 C 295.51 182.61 282.41 197.95 265.54 204.65 C 248.56 211.57 228.04 209.64 212.98 199.04 C 200.07 189.96 192.21 175.14 189.10 159.92 C 185.86 143.84 187.07 126.44 194.54 111.67 C 198.57 103.42 205.72 97.44 212.00 90.97 C 224.69 78.34 237.16 65.45 250.51 53.50 C 257.37 46.98 266.23 42.75 275.44 40.79 M 391.45 82.55 C 384.66 84.08 379.74 91.16 380.85 98.08 C 381.64 105.69 389.52 111.54 397.04 110.08 C 404.50 109.07 410.10 101.30 408.64 93.90 C 407.59 86.08 399.06 80.45 391.45 82.55 Z" />
</g>
</svg>
