<?xml version="1.0" encoding="UTF-8" ?>
<!DOCTYPE svg PUBLIC "-//W3C//DTD SVG 1.1//EN" "http://www.w3.org/Graphics/SVG/1.1/DTD/svg11.dtd">
<svg width="512pt" height="512pt" viewBox="0 0 512 512" version="1.1" xmlns="http://www.w3.org/2000/svg">
<g id="#000000ff">
<path fill="#000000" opacity="1.00" d=" M 376.59 4.31 C 376.98 0.25 382.57 -1.38 385.08 1.88 C 397.69 15.10 408.40 30.73 413.15 48.56 C 427.58 54.21 441.97 59.96 456.40 65.62 C 458.98 66.65 461.66 67.53 464.03 69.04 C 468.13 71.73 470.15 77.18 468.77 81.90 C 467.67 85.30 465.22 88.27 465.08 91.96 C 464.57 97.66 468.09 103.39 473.37 105.56 C 482.63 109.45 492.09 112.85 501.34 116.75 C 507.10 119.07 509.59 126.85 506.13 132.03 C 502.73 136.95 498.75 141.44 495.14 146.20 C 489.32 153.29 484.21 161.29 476.43 166.44 C 465.39 174.06 450.80 176.24 438.04 172.06 C 431.97 170.38 426.43 166.86 420.08 166.27 C 410.46 165.38 400.89 171.91 398.09 181.13 C 390.98 204.38 384.21 227.75 377.14 251.02 C 376.30 253.51 375.58 256.14 376.15 258.79 C 381.00 290.63 372.01 325.06 349.76 348.74 C 342.60 356.20 333.88 362.10 324.36 366.10 C 318.36 411.03 312.38 455.96 306.34 500.88 C 305.95 505.00 303.19 508.95 299.03 509.91 C 293.64 511.52 287.69 507.48 287.10 501.93 C 280.65 454.95 274.53 407.92 268.17 360.93 C 260.11 355.92 253.02 349.50 247.07 342.13 C 210.07 342.20 173.07 342.12 136.07 342.17 C 127.76 341.91 119.70 348.31 118.83 356.72 C 116.44 374.34 114.51 392.49 106.79 408.75 C 101.02 418.45 92.01 425.97 82.01 431.04 C 75.16 434.69 67.82 437.32 60.96 440.94 C 57.24 443.05 53.12 445.57 51.88 449.96 C 45.93 467.73 40.19 485.59 34.20 503.35 C 32.77 507.97 28.67 511.32 23.90 512.00 L 23.34 512.00 C 16.93 512.09 11.12 506.59 11.40 500.09 C 11.89 481.39 12.60 462.68 13.60 444.00 C 13.68 431.91 17.98 419.87 25.61 410.51 C 29.70 406.00 33.96 401.61 38.65 397.73 C 43.93 393.19 46.88 386.53 48.37 379.85 C 51.02 366.11 49.16 351.93 45.79 338.48 C 43.03 324.16 40.38 309.82 37.70 295.49 C 35.92 285.57 36.73 275.48 37.72 265.53 C 38.35 260.28 40.48 255.43 42.52 250.61 C 44.02 247.31 42.43 243.48 39.59 241.50 C 29.55 233.50 19.51 225.50 9.44 217.53 C 7.33 215.81 5.03 213.88 4.54 211.03 C 3.49 206.69 6.59 201.94 10.98 201.15 C 13.80 200.42 16.50 201.81 18.85 203.20 C 25.70 207.31 32.52 211.48 39.42 215.51 C 47.21 220.13 56.95 221.25 65.58 218.51 C 71.57 216.65 76.56 212.69 82.26 210.18 C 90.21 206.40 98.85 204.43 107.52 203.19 C 174.51 192.63 241.49 182.05 308.47 171.46 C 324.16 138.52 339.85 105.57 355.52 72.62 C 358.70 66.69 362.55 61.00 367.67 56.56 C 370.64 39.15 373.47 21.70 376.59 4.31 Z" />
</g>
</svg>
