<?xml version="1.0" encoding="UTF-8" ?>
<!DOCTYPE svg PUBLIC "-//W3C//DTD SVG 1.1//EN" "http://www.w3.org/Graphics/SVG/1.1/DTD/svg11.dtd">
<svg width="1280pt" height="720pt" viewBox="0 0 1280 720" version="1.1" xmlns="http://www.w3.org/2000/svg">
<g id="#ffffffff">
</g>
<g id="#00fa8eff">
<path fill="#00fa8e" opacity="1.00" d=" M 0.00 11.52 C 32.38 6.16 65.18 3.16 98.01 2.99 C 133.65 3.31 169.71 6.91 203.58 18.58 C 214.46 22.21 224.77 27.27 235.41 31.50 C 286.29 52.05 340.76 67.13 396.10 64.47 C 417.38 63.39 438.40 59.28 458.85 53.43 C 482.85 46.64 507.39 42.01 531.87 37.36 C 578.21 28.81 625.19 23.30 672.33 22.50 C 748.52 20.99 825.36 32.86 896.51 60.59 C 912.54 66.56 927.83 74.40 944.15 79.64 C 965.48 86.65 987.65 91.01 1010.01 92.98 C 1063.28 97.64 1116.98 89.07 1167.91 73.56 C 1206.83 61.46 1244.68 45.52 1280.00 25.11 L 1280.00 720.00 L 0.00 720.00 L 0.00 11.52 Z" />
</g>
</svg>
