<svg id="Layer_1" data-name="Layer 1" xmlns="http://www.w3.org/2000/svg" viewBox="0 0 1280 720"><defs><style>.cls-1{fill:none;}.cls-2{fill:#00fa8e;}</style></defs><g id="_00fa8eff" data-name="#00fa8eff"><path class="cls-1" d="M229-344.36q49.2,2.91,98,10.49" transform="translate(0 360)"/><path class="cls-1" d="M382.94-304.94l-2-2" transform="translate(0 360)"/><path class="cls-1" d="M336-311.06a27.76,27.76,0,0,1-17.26-3.36,55.6,55.6,0,0,0,7.73-12.28,190.47,190.47,0,0,1-27.6-2.55c23.27,1.39,48.36,4.51,65.31,20.52,2.36,2.23,4.68,5.23,4,8.41-.56,2.54-3,4.33-5.53,4.89a18.26,18.26,0,0,1-7.73-.47c-16.25-3.52-31.35-10.66-46.35-17.62,1.56-4.57-8.44-10.88-11.46-16-2.77-4.65-4.13-10.44-2.36-15.56" transform="translate(0 360)"/><rect class="cls-1" width="109" height="50"/><rect class="cls-2" y="360" width="1280" height="360"/></g></svg>