<?xml version="1.0" encoding="utf-8"?>
<!-- Generator: Adobe Illustrator 24.0.2, SVG Export Plug-In . SVG Version: 6.00 Build 0)  -->
<svg version="1.1" id="Capa_1" xmlns="http://www.w3.org/2000/svg" xmlns:xlink="http://www.w3.org/1999/xlink" x="0px" y="0px"
	 viewBox="0 0 512 512" style="enable-background:new 0 0 512 512;" xml:space="preserve">
<path d="M510.4,69.8L510.4,69.8l-4.1-25.3c-3-18.8-15.6-34.1-33.6-41s-37.7-3.9-52.9,8.1l-20.2,16c-19.3,15.1-34.1,35.2-43.1,57.9
	l-12.9,32.8H168.5l-12.9-32.8c-9-22.7-23.8-42.6-43.1-57.9l-20.2-16C77.2-0.1,57.3-3.2,39.3,3.6c-2.4,0.9-4.7,2-6.9,3.1
	C31.6,7.3,30.9,7.7,30,8c-0.4,0.2-0.7,0.4-0.9,0.4l-0.2,0.2c-0.6,0.4-1.3,0.7-2.1,1.1c-1.1,0.7-2.2,1.3-3.4,2
	c-0.7,0.6-1.9,1.1-2.8,1.8c-0.9,0.7-1.7,1.5-2.4,2.2C18,16,18,16.1,17.8,16.3c-0.6,1.3-1.5,2.2-2.2,3c-0.6,1.1-1.3,2.2-1.9,3.1
	c0,0.2-0.2,0.2-0.2,0.4c-0.2,0.4-0.6,0.9-0.7,1.3c-0.2,0.7-0.6,1.5-0.9,2.2c-0.2,0.7-0.4,1.5-0.7,2.2l0,0c-2.6,5-4.3,10.3-5.2,16
	L1.7,69.8c-3.7,24-1.1,48.7,7.7,71.4l6.2,15.9c0.6,0.7,0.9,1.7,0.9,2.6l0,0l0,0l0,0c0,0.6,0.2,0.9,0.4,1.5c0,0.2,0.2,0.2,0.2,0.4
	c0.6,1.3,0.9,2,1.1,3.3v0.2c2.2,5,3.9,10,5.6,15.1c1.1,3,3.2,6.5,4.3,10.1c0.9,1.5,1.7,3,2.2,4.6c0.2,0.6,0.4,1.3,0.6,1.8
	c0.2,0.4,0.4,0.9,0.6,1.3l0,0l0.4,0.9c0.2,0.6,0.6,1.1,0.6,1.5l0,0l3.6,9.2C40.1,220,46.6,229,55.1,236v81.4
	c0,47,20.8,91.5,57,122.3l41.2,34.9C181.6,498.7,218,512,255.4,512s73.8-13.3,102.2-37.4l41.2-34.9c36.2-30.6,57-75.3,57-122.3V236
	c8.6-7,15.2-16,19.1-26.4l27-68.4C511.5,118.5,514.1,93.8,510.4,69.8z M36.1,131.1C29,113,26.8,93.3,30,74.1l4.1-25.3
	c1.5-8.9,7.3-16,15.9-19.4c8.4-3.3,17.8-1.8,24.9,3.9l20.2,16c15.4,12.2,27.4,28.2,34.5,46.3l9.7,24.7c-38,7.2-68.8,35.2-79.3,71.4
	L36.1,131.1z M381.2,418.5L340,453.3c-47.8,40.6-119.8,40.6-167.6,0l-41.2-34.9c-30-25.5-47.2-62.4-47.2-101.3v-97.8
	c0-40.4,33.4-73.2,74.4-73.2h195.3c41,0,74.4,32.8,74.4,73.2v97.8l0,0C428.3,356.1,411,393,381.2,418.5z M476.2,131.1l-23.8,60.5
	c-10.5-36.3-41.2-64.2-79.3-71.4l9.7-24.7c7.1-18.1,19.1-34.1,34.5-46.3l20.2-16c7.1-5.7,16.5-7,24.9-3.9
	c8.4,3.3,14.4,10.5,15.9,19.4l4.1,25.3C485.6,93.3,483.4,113,476.2,131.1z"/>
<ellipse cx="144.9" cy="267.2" rx="24.7" ry="24.3"/>
<ellipse cx="367.5" cy="267.2" rx="24.7" ry="24.3"/>
<path d="M345.6,313.7v-0.6c0-25.3-12.7-48.9-33.9-63.1l-13.9-9.2c-25.3-17-57.9-17-83.2,0l-13.9,9.2c-21.4,14.2-33.9,37.8-33.9,63.1
	v0.6c0,4.1-1.7,8.1-4.7,11.6c-8.1,9-12.4,20.5-12.4,32.5v6.8c0,50.2,41.4,90.9,92.4,90.9h28.5c51,0,92.4-40.8,92.4-90.9v-6.8
	c0-12-4.3-23.4-12.4-32.5C347.3,321.8,345.6,317.8,345.6,313.7L345.6,313.7z M334.7,364.6c0,34.9-28.9,63.3-64.3,63.3H242
	c-35.4,0-64.3-28.4-64.3-63.3v-6.8c0-5.2,1.9-10.3,5.4-14.2c7.5-8.5,11.8-19.2,11.8-29.9v-0.6c0-16,8.1-31.2,21.6-40.2l13.9-9.2
	c7.9-5.2,16.9-7.9,25.9-7.9c9,0,18,2.6,25.9,7.9l13.9,9.2c13.5,9,21.6,24.2,21.6,40.2v0.6c0,10.7,4.1,21.4,11.8,29.9
	c3.6,3.9,5.4,9,5.4,14.2L334.7,364.6z"/>
<path d="M299.1,370.9c-11.2-3.9-21.2-11.1-28.1-20.7v-20.7c0-7.6-6.4-13.8-14.1-13.8c-7.7,0-14.1,6.3-14.1,13.8v20.7
	c-6.7,9.4-16.5,16.6-27.4,20.5c-7.3,2.6-11.1,10.5-8.4,17.7c2.6,7.2,10.7,10.9,18,8.3c12-4.2,23.1-11.3,31.9-20.1
	c9.2,9.2,20.6,16.2,33.2,20.5c1.5,0.6,3,0.7,4.5,0.7c5.8,0,11.2-3.7,13.3-9.4C310.4,381.2,306.4,373.3,299.1,370.9z"/>
<path d="M292.9,325.1c0,19.6-16.1,14.9-36.2,14.9c-19.9,0-36.2,4.6-36.2-14.9c0-19.6,16.1-35.6,36.2-35.6
	C276.8,289.5,292.9,305.6,292.9,325.1z"/>
</svg>
