<svg id="Layer_1" data-name="Layer 1" xmlns="http://www.w3.org/2000/svg" viewBox="0 0 293.71 50"><defs><style>.cls-1{opacity:0.98;isolation:isolate;}.cls-2{fill:#1ab975;}.cls-3{fill:#1ed688;}.cls-4{fill:#ffc14f;}.cls-5{fill:#ffcd71;}.cls-6{fill:#ff9f22;}.cls-7{fill:#ffb52d;}.cls-8{fill:#9b5e34;}.cls-9{fill:#b56d3c;}.cls-10{fill:#634539;}.cls-11{fill:#badfe4;}.cls-12{fill:#def4f8;}.cls-13{fill:#fc7979;}.cls-14{fill:#fd9a9a;}</style></defs><title>logo</title><g id="_000000f9" data-name="#000000f9"><path class="cls-1" d="M119.65,11.16c1.19.13,2.37.27,3.55.47a209.42,209.42,0,0,0-.9,29.74c0,1.75-3.31,2.15-3.45.08a35.69,35.69,0,0,1-.79-13.62c.33,3.29.37,6.59.72,9.88a17.37,17.37,0,0,0,.13-14.07C118.75,19.52,118.29,15.14,119.65,11.16Z" transform="translate(-2.91 -4.21)"/><path class="cls-1" d="M231.7,13.48c1-1.38,5-2.05,4,.6-2.53,5.65-3.11,11.89-3.38,18a103.16,103.16,0,0,1,1,12.66l-2.67-.88c.09,1.61.16,3.23.18,4.84a14.59,14.59,0,0,1,2.58-3.46,14.62,14.62,0,0,1-2,4.87,32.85,32.85,0,0,1-4.92,1Q228,48.52,229.64,46c-.22-5.77-1.47-11.46-1.08-17.25l-2.51-.92,2.32-1.35c.93-4.33.81-9.14,3.33-13m-.62,27.8C229.7,44.61,234.52,41.22,231.08,41.28Z" transform="translate(-2.91 -4.21)"/><path class="cls-1" d="M293.05,12.39a10.24,10.24,0,0,1,3.57.19c-1,4.22-1.68,8.52-2.32,12.81l-1.58-.46c.45-1.91.88-3.82,1.29-5.75l-1,2c-.65-.68-1.27-1.38-1.9-2.08A45.21,45.21,0,0,1,293.05,12.39Z" transform="translate(-2.91 -4.21)"/><path class="cls-1" d="M58,12.81c.91.74,2.93.89,2.86,2.43,0,3.16-.3,6.32-.06,9.48.31,6.26-.76,12.79,1.39,18.83,3.15,1,5.71-2,8.56-2.91C68.11,43.51,64.08,46.7,60,44.9c-3.17-1.55-3.38-5.5-3.53-8.59A127.36,127.36,0,0,1,58,12.81m0,18.59c-1.45,3.18,3.47,0,0,0m.25,4Z" transform="translate(-2.91 -4.21)"/><path class="cls-1" d="M105.2,13c1.19.58,2.37,1.17,3.55,1.77-.1,3.69-2.24,8.07.38,11.25l-1.7,1.26c-.23,4.45-.59,8.89-.57,13.34L109,42.8c-1.24,1.78-4.26,2.29-5.29,0-2.43-4.38-.44-9.45-.51-14.11L102.16,27c3.28-3.83,1.63-9.36,3-13.92m-.92,28.11c.38-4.84,1.89-9.76.86-14.6A24.61,24.61,0,0,0,104.28,41.14Z" transform="translate(-2.91 -4.21)"/><path class="cls-1" d="M202.51,13c1.18.55,2.35,1.1,3.51,1.67-.38,3.06-.61,6.14-.87,9.23L206,26c-1.86,2.28-1.4,5.37-1.68,8.11,0,3-.82,6.59,1.83,8.8a3.05,3.05,0,0,1-5.55-1.06c-.92-4.37-.4-8.93-.22-13.37l-1.14-1.57,1.87-1.39c.53-4.15.44-8.38,1.39-12.49m-.79,17.44,1.51-.06c0-.49-.1-1.49-.13-2-1-2.09-2.2,1.12-1.38,2.06M201.34,41a90.56,90.56,0,0,1,2-9.63C199.15,32.57,201.43,37.82,201.34,41Z" transform="translate(-2.91 -4.21)"/><path class="cls-1" d="M88.74,25.6c.5-4.17.94-8.35,1.46-12.51,1.24.55,2.47,1.13,3.69,1.71-.48,3.39-.75,6.81-1.08,10.21l2.11.6L92.7,27.16a98.85,98.85,0,0,0-.62,13.32c1.13,1.27,2.33,2.71.48,4-1.56-.2-3.54-.3-4-2.19-2.1-4.42,0-9.33-.42-13.94l-1-1.45,1.55-1.32m.08,12.29c2.46-3,1.38-7.4,2-11C87.58,29.36,89.44,34.37,88.82,37.89Z" transform="translate(-2.91 -4.21)"/><path class="cls-1" d="M75.65,17.33l3.47,1.28c-.63,1.95-1.4,3.84-2.17,5.74,1.85,4,1.27,8.64.9,12.93-.14,1.69-2.3,1.78-3.36,2.58-.24-5-.7-10.53,1.93-15A20.41,20.41,0,0,1,75.65,17.33Z" transform="translate(-2.91 -4.21)"/><path class="cls-1" d="M165.44,21.07c3-2.23,8-.8,8.77,3.07,1.14,2.76.21,5.61-1.51,7.88-.12-.82-.34-2.45-.47-3.27-.36,1.45-.73,2.9-1.08,4.36-1.64.74-3.28,1.51-4.93,2.27-.1,3.62-.15,7.24,0,10.86l-3-.18a74.19,74.19,0,0,1,.71-20.29c-.16-1.26,2.83-1.44,2.31,0,.18,2.8-.05,5.6,0,8.4,3.35-2.13,6.24-6.48,4.21-10.49C170,21.29,167.15,21.68,165.44,21.07Z" transform="translate(-2.91 -4.21)"/><path class="cls-1" d="M290.37,21.57l2.23-.42c-.28,3.62-.85,7.2-1.41,10.78,1-2.25,2-4.54,3.22-6.69-.18,4-1.05,8-.93,12,0,2.9.45,5.88-.41,8.7-3.38,1.18-4-3.13-3.47-5.55.35-2,.68-4,.95-6.06l2.86.69c-2.05-4.54-6.41,3-9.52-.15-1.27-2.39-.95-5.36-.18-7.86,1.23-2.74,4.89-2.68,6.83-.72-.05-1.18-.13-3.55-.17-4.73m-3.82,11.92c1.05-1.16,2.07-2.34,3.1-3.53-.75-1.12-1.5-2.23-2.26-3.34C287,28.9,286.72,31.19,286.55,33.49Z" transform="translate(-2.91 -4.21)"/><path class="cls-1" d="M244.31,36.93c-2.37-5-1.59-12.22,3.67-15,.68.79,1.35,1.59,2,2.39-3.29,3.74-3.23,9.55-1,13.82,3-3.6.15-8.33,1.12-12,3.15-.15,6.29-.4,9.42-.78-2,1.6-4.74,1.54-7.17,1.93.6,2.89,1.73,5.87,1.14,8.86C252,39.69,246.24,40.56,244.31,36.93Z" transform="translate(-2.91 -4.21)"/><path class="cls-1" d="M264.66,37.18c-2.57-5-1.79-12.16,3.28-15.25l2.32,2.24c-3,3.66-4.08,10.28-.3,13.73a21.57,21.57,0,0,0-.31-11.6A67.28,67.28,0,0,0,279,25.25c0,.28,0,.83.06,1.11-2.14.28-4.28.58-6.42.84a33.09,33.09,0,0,1,1.23,8C273.43,39.4,266.84,40.85,264.66,37.18Z" transform="translate(-2.91 -4.21)"/><path class="cls-1" d="M133.82,26.13c1-1.29,3.28-3.22,4.78-1.69,1.15,3.4-.53,7-3.18,9.19a10.92,10.92,0,0,0,1.67,5.88,55.61,55.61,0,0,1,5.63-5.65,41.2,41.2,0,0,1-4.23,6.86c-1.94-.66-4.58-.67-5.59-2.78-1.55-3.82-.74-8.18.92-11.81m2.92-.09a2.89,2.89,0,0,0-1,3.71C137.61,30.49,138.82,26.16,136.74,26Z" transform="translate(-2.91 -4.21)"/><path class="cls-1" d="M184.38,25.91c1.24-1.66,5.31-3.79,5.3.33l-3.12-.69c0,1.62,0,3.24.16,4.85L187.3,27c.66.78,1.3,1.58,1.95,2.38-1.13,1.55-2.31,3.05-3.56,4.51a24.16,24.16,0,0,0,1.68,5.63c1.84-1.91,3.61-3.89,5.57-5.65-1.12,2.37-2,5.19-4.44,6.56-2.05-.11-4.59-.67-5.36-2.87A15.18,15.18,0,0,1,184.38,25.91Z" transform="translate(-2.91 -4.21)"/></g><path class="cls-2" d="M52.91,29.21a24.92,24.92,0,0,1-6.65,17c-.11.11-.64,0-.75.08a21,21,0,0,1-5.82,4.61c-.19.1-.61.7-.8.79a24.66,24.66,0,0,1-7.29,2.26c-.36.06-.65-.68-1-.64a50.3,50.3,0,0,1-5.35,0c-.31,0-.7.71-1,.66a24.66,24.66,0,0,1-7.29-2.26c-.26-.13-.52-1.84-.77-2-2.26-1.21-4.06-2-5.84-3.84-.17-.18-.59.51-.76.33a25,25,0,1,1,43.34-17Z" transform="translate(-2.91 -4.21)"/><path class="cls-3" d="M48.71,24.5A17.53,17.53,0,1,1,31.19,7,17.52,17.52,0,0,1,48.71,24.5Z" transform="translate(-2.91 -4.21)"/><path class="cls-4" d="M16.94,29.33V51.68a24.77,24.77,0,0,1-3.47-2.06c-.09-.06-.06-.36-.15-.43-.38-.27-.44-.42-.81-.72-.15-.13-.75-.18-.91-.31a26.83,26.83,0,0,1-2-2v-1a.62.62,0,0,0,0-1v-1L9.8,43a.63.63,0,0,0,0-.71l-.26-.44V39.37l.23-.32a.63.63,0,0,0,0-.71l-.26-.44V36a.64.64,0,0,0,.07-.9L9.57,35V34l.23-.32a.63.63,0,0,0,0-.71l-.26-.44v-3.2Z" transform="translate(-2.91 -4.21)"/><path class="cls-5" d="M20.52,27.86l-3.58,3.58V45.15a2.4,2.4,0,0,1-4.09,1.69l0,0a2.4,2.4,0,0,1-.7-1.7V36.33a5.85,5.85,0,0,0-1.8-4.17h0L6,27.86A1.84,1.84,0,0,1,8.34,25h0V23.84A1.88,1.88,0,0,1,10.11,22a1.82,1.82,0,0,1,1.31.47,1.84,1.84,0,0,1,3.67,0A1.82,1.82,0,0,1,16.4,22a1.88,1.88,0,0,1,1.77,1.88V25h0a1.84,1.84,0,0,1,2.35,2.82Z" transform="translate(-2.91 -4.21)"/><path class="cls-6" d="M9.57,44.25h2.89a.49.49,0,0,1,0,1H9.57Zm3.9,5.37h1a.49.49,0,0,0,.49-.49v-.48a.49.49,0,0,0-.49-.49H11.6C12.2,48.68,12.83,49.16,13.47,49.62Zm-3.9-6.34h2.89a.49.49,0,0,0,.49-.49V42.3a.49.49,0,0,0-.49-.49H9.57Zm0-3.91h2.89a.49.49,0,0,0,.49-.49v-.49a.49.49,0,0,0-.49-.49H9.57Zm0-6.84V34h2.89a.49.49,0,0,0,.49-.49V33a.49.49,0,0,0-.49-.49Zm0,3.42h2.89a.49.49,0,0,0,0-1H9.57Z" transform="translate(-2.91 -4.21)"/><path class="cls-7" d="M12.09,44.25h4.85v1H12.09a.49.49,0,1,1,0-1Zm1.57,4.64a.73.73,0,0,0,.73.73h2.55V48.16H14.39A.73.73,0,0,0,13.66,48.89ZM11.6,42.54a.74.74,0,0,0,.73.74h4.61V41.81H12.33A.73.73,0,0,0,11.6,42.54Zm.73-10a.74.74,0,0,0,0,1.47h4.61V32.53Zm-.73,2.93a.49.49,0,0,0,.49.49h4.85V35H12.09A.49.49,0,0,0,11.6,35.46Zm0,3.18a.73.73,0,0,0,.73.73h4.61V37.9H12.33A.74.74,0,0,0,11.6,38.64Z" transform="translate(-2.91 -4.21)"/><path class="cls-8" d="M31.6,11.27V53.94a25.28,25.28,0,0,1-7.37,0V11.27Z" transform="translate(-2.91 -4.21)"/><path class="cls-9" d="M35.14,11.38,31.6,14.92V42.41a2.23,2.23,0,0,1-2.34,2.23H29.2a2.22,2.22,0,0,1-2.1-2.22V20.62a6.94,6.94,0,0,0-2.14-5l0,0-4.25-4.25a1.87,1.87,0,0,1-.1-2.57A1.82,1.82,0,0,1,23,8.53V7.28a1.85,1.85,0,0,1,3.08-1.37,1.84,1.84,0,0,1,3.67,0,1.85,1.85,0,0,1,3.08,1.42v1.2a1.82,1.82,0,0,1,2.41.28,1.87,1.87,0,0,1-.1,2.57Z" transform="translate(-2.91 -4.21)"/><path class="cls-10" d="M25.18,13.25a1.22,1.22,0,1,1,1.22,1.22A1.22,1.22,0,0,1,25.18,13.25Zm3.13,10a3.42,3.42,0,0,0-3.42-3.42,3.52,3.52,0,0,0-.66.06v6.71a3.52,3.52,0,0,0,.66.06,3.42,3.42,0,0,0,3.42-3.41Zm.48-4.4a1.47,1.47,0,1,0-1.46-1.46A1.46,1.46,0,0,0,28.79,18.86Zm-.86,26.27a2,2,0,1,0-2.55-1.85v0a4,4,0,0,0-.49,0,3.52,3.52,0,0,0-.66.06v6.71a3.52,3.52,0,0,0,.66.06,3.41,3.41,0,0,0,3-5Zm.62,5.47a1.22,1.22,0,1,0,1.22,1.22A1.22,1.22,0,0,0,28.55,50.6ZM30.61,28a4,4,0,0,0-1.56,7.61,2.91,2.91,0,0,0-.14.89,2.84,2.84,0,0,0,2.69,2.83V28.17A3.64,3.64,0,0,0,30.61,28Z" transform="translate(-2.91 -4.21)"/><path class="cls-11" d="M46.26,25.81V46.2a25.05,25.05,0,0,1-7.37,5.48V25.81Z" transform="translate(-2.91 -4.21)"/><path class="cls-12" d="M49.8,24.38l-3.54,3.54V41.81a2.15,2.15,0,0,1-.91,1.76l0,0a2.16,2.16,0,0,1-3.42-1.76V33.92a7.37,7.37,0,0,0-2.27-5.27l0,0-4.29-4.29a1.84,1.84,0,0,1,2.35-2.81V20.28a1.85,1.85,0,0,1,1.84-1.84,1.83,1.83,0,0,1,1.24.48,1.84,1.84,0,0,1,3.67,0,1.82,1.82,0,0,1,1.23-.48,1.85,1.85,0,0,1,1.85,1.84v1.25a1.83,1.83,0,0,1,2.41.28,1.88,1.88,0,0,1-.1,2.57Z" transform="translate(-2.91 -4.21)"/><path class="cls-13" d="M16.77,28.53A1.46,1.46,0,0,1,15.31,30H11.2a1.47,1.47,0,0,1,0-2.93h.58a1.47,1.47,0,0,1,1.38-1h.19a1.47,1.47,0,0,1,1.38,1h.58A1.46,1.46,0,0,1,16.77,28.53ZM22.56,9.31a1,1,0,1,0-1.38,1.38l.69.69A1,1,0,1,0,23.25,10ZM13.26,25a1,1,0,0,0,1-1v-1a1,1,0,1,0-2,0v1A1,1,0,0,0,13.26,25ZM7.9,26a1,1,0,1,0-1.38,1.38l.69.69a1,1,0,1,0,1.38-1.38Zm2.87-.09a1,1,0,0,0,.69-1.2l-.26-.94A1,1,0,0,0,10,23.11a1,1,0,0,0-.69,1.2l.25.94A1,1,0,0,0,10.77,25.94Zm29.31-3.52a1,1,0,0,0,.69-1.19l-.25-.94a1,1,0,1,0-1.88.5l.25.94A1,1,0,0,0,40.08,22.42ZM25.42,9.22a1,1,0,0,0,.7-1.2l-.26-.94a1,1,0,0,0-1.88.5l.25.95A1,1,0,0,0,25.42,9.22ZM44.63,23.55h-.58a1.46,1.46,0,0,0-1.38-1h-.19a1.46,1.46,0,0,0-1.38,1h-.58a1.47,1.47,0,0,0,0,2.93h4.11a1.47,1.47,0,0,0,0-2.93ZM30,10.34h-.58a1.45,1.45,0,0,0-1.38-1h-.19a1.45,1.45,0,0,0-1.38,1h-.58a1.47,1.47,0,0,0,0,2.93H30a1.47,1.47,0,0,0,0-2.93Zm7.25,12.17a1,1,0,0,0-1.38,1.38l.69.69a1,1,0,0,0,1.38,0,1,1,0,0,0,0-1.38Z" transform="translate(-2.91 -4.21)"/><path class="cls-14" d="M28.89,6.34v1a1,1,0,1,1-1.95,0v-1a1,1,0,1,1,1.95,0Zm2.27,0A1,1,0,0,0,30,7.08L29.71,8a1,1,0,0,0,1.89.51l.25-.95A1,1,0,0,0,31.16,6.39ZM18.61,26l-.69.69A1,1,0,1,0,19.3,28.1l.69-.69A1,1,0,0,0,18.61,26ZM16.5,23.11a1,1,0,0,0-1.19.69l-.26.94a1,1,0,0,0,.7,1.2,1,1,0,0,0,1.19-.69l.25-.94A1,1,0,0,0,16.5,23.11Zm32.81-.6a1,1,0,0,0-1.38,0l-.69.69a1,1,0,0,0,0,1.38,1,1,0,0,0,1.38,0l.69-.69A1,1,0,0,0,49.31,22.51Zm-3.49-2.92a1,1,0,0,0-1.19.7l-.26.94a1,1,0,0,0,1.89.5l.25-.94A1,1,0,0,0,45.82,19.59Zm-3.25-1a1,1,0,0,0-1,1v1a1,1,0,1,0,1.95,0v-1A1,1,0,0,0,42.57,18.57Zm-9.3-9.26-.69.69A1,1,0,1,0,34,11.38l.69-.69a1,1,0,0,0-1.38-1.38Z" transform="translate(-2.91 -4.21)"/></svg>