<?xml version="1.0" encoding="utf-8"?>
<!-- Generator: Adobe Illustrator 25.4.1, SVG Export Plug-In . SVG Version: 6.00 Build 0)  -->
<svg version="1.1" id="Layer_1" xmlns="http://www.w3.org/2000/svg" xmlns:xlink="http://www.w3.org/1999/xlink" x="0px" y="0px"
	 viewBox="0 0 173.1 79.9" style="enable-background:new 0 0 173.1 79.9;" xml:space="preserve">
<style type="text/css">
	.st0{opacity:0.98;enable-background:new    ;}
	.st1{fill:#1AB975;}
	.st2{fill:#1ED688;}
	.st3{fill:#FFC14F;}
	.st4{fill:#FFCD71;}
	.st5{fill:#FF9F22;}
	.st6{fill:#FFB52D;}
	.st7{fill:#9B5E34;}
	.st8{fill:#B56D3C;}
	.st9{fill:#634539;}
	.st10{fill:#BADFE4;}
	.st11{fill:#DEF4F8;}
	.st12{fill:#FC7979;}
	.st13{fill:#FD9A9A;}
</style>
<g id="_000000f9">
	<path class="st0" d="M120.9,0c1.2,0.1,2.5,0.3,3.7,0.5c-1,11-1.4,22.1-0.9,33.1c0,1.9-3.4,2.4-3.6,0.1c-1.2-5-1.5-10.1-0.8-15.2
		c0.3,3.7,0.4,7.3,0.7,11c2.1-5,2.1-10.7,0.1-15.7C120,9.3,119.5,4.4,120.9,0z"/>
	<path class="st0" d="M114.6,38c1-1.5,5.2-2.3,4.1,0.7c-2.6,6.3-3.2,13.2-3.5,20c0.6,4.7,1,9.4,1,14.1l-2.8-1
		c0.1,1.8,0.2,3.6,0.2,5.4c0.7-1.4,1.6-2.7,2.7-3.9c-0.4,1.9-1.1,3.8-2.1,5.4c-1.7,0.5-3.4,0.9-5.1,1.1c1-1.9,2.1-3.8,3.3-5.7
		c-0.2-6.4-1.5-12.8-1.1-19.2l-2.6-1l2.4-1.5C112.1,47.7,112,42.3,114.6,38 M114,69C112.6,72.7,117.6,68.9,114,69L114,69z"/>
	<path class="st0" d="M169.4,40.5c1.2-0.2,2.5-0.1,3.7,0.2c-1,4.7-1.7,9.5-2.4,14.3l-1.6-0.5c0.5-2.1,0.9-4.3,1.3-6.4l-1,2.2
		c-0.7-0.8-1.3-1.5-2-2.3C167.9,45.5,168.6,43,169.4,40.5z"/>
	<path class="st0" d="M57.1,1.8c0.9,0.8,3,1,3,2.7c0,3.5-0.3,7-0.1,10.6c0.3,7-0.8,14.2,1.4,21c3.3,1.1,5.9-2.2,8.9-3.2
		c-2.7,3.2-6.9,6.7-11.1,4.7c-3.3-1.7-3.5-6.1-3.7-9.6C55.2,19.3,55.8,10.5,57.1,1.8 M57.1,22.5C55.6,26.1,60.6,22.5,57.1,22.5z"/>
	<path class="st0" d="M106,2c1.2,0.6,2.5,1.3,3.7,2c-0.1,4.1-2.3,9,0.4,12.5l-1.8,1.4c-0.2,5-0.6,9.9-0.6,14.9l2.2,2.4
		c-1.3,2-4.4,2.6-5.5,0c-2.5-4.9-0.5-10.5-0.5-15.7l-1.1-1.9C106.2,13.4,104.5,7.2,106,2 M105,33.4c0.4-5.4,2-10.9,0.9-16.3
		C104.1,22.4,103.8,28,105,33.4L105,33.4z"/>
	<path class="st0" d="M88.7,40.9c1.2,0.6,2.4,1.2,3.6,1.9c-0.4,3.4-0.6,6.8-0.9,10.3l0.9,2.3c-1.9,2.5-1.5,6-1.7,9
		c0,3.3-0.8,7.3,1.9,9.8c-0.9,1.6-2.9,2-4.4,1c-0.7-0.5-1.2-1.3-1.4-2.2c-1-4.9-0.4-9.9-0.2-14.9l-1.2-1.7l1.9-1.5
		C87.8,50.2,87.7,45.5,88.7,40.9 M87.9,60.3l1.6-0.1c0-0.5-0.1-1.7-0.1-2.2C88.3,55.7,87.1,59.3,87.9,60.3 M87.5,72
		c0.5-3.6,1.2-7.2,2.1-10.7C85.3,62.7,87.6,68.5,87.5,72z"/>
	<path class="st0" d="M88.9,16.1c0.5-4.6,1-9.3,1.5-13.9c1.3,0.6,2.6,1.3,3.8,1.9c-0.5,3.8-0.8,7.6-1.1,11.4l2.2,0.7L93,17.8
		c-0.5,4.9-0.7,9.9-0.6,14.8c1.2,1.4,2.4,3,0.5,4.5c-1.6-0.2-3.7-0.3-4.1-2.4c-2.2-4.9,0-10.4-0.4-15.5l-1-1.6L88.9,16.1 M88.9,29.7
		c2.5-3.3,1.4-8.2,2.1-12.3C87.7,20.3,89.6,25.8,88.9,29.7L88.9,29.7z"/>
	<path class="st0" d="M75.3,6.9l3.6,1.4c-0.7,2.2-1.5,4.3-2.2,6.4c1.9,4.5,1.3,9.6,0.9,14.4c-0.1,1.9-2.4,2-3.5,2.9
		c-0.2-5.6-0.7-11.7,2-16.7C75.4,12.5,75.1,9.7,75.3,6.9z"/>
	<path class="st0" d="M58.1,44.9c3.1-2.5,8.3-0.9,9.1,3.4c1.2,3.1,0.2,6.2-1.6,8.8c-0.1-0.9-0.4-2.7-0.5-3.6
		c-0.4,1.6-0.8,3.2-1.1,4.9c-1.7,0.8-3.4,1.7-5.1,2.5c-0.1,4-0.2,8.1,0,12.1l-3.1-0.2c-0.7-7.5-0.5-15.1,0.7-22.6
		c-0.2-1.4,2.9-1.6,2.4,0c0.2,3.1-0.1,6.2,0,9.4c3.5-2.4,6.5-7.2,4.4-11.7C62.8,45.1,59.9,45.5,58.1,44.9z"/>
	<path class="st0" d="M166.1,52.6l2.3-0.5c-0.3,4-0.9,8-1.5,12c1-2.5,2.1-5.1,3.3-7.5c-0.2,4.5-1.1,8.9-1,13.4
		c0,3.2,0.5,6.5-0.4,9.7c-3.5,1.3-4.1-3.5-3.6-6.2c0.4-2.2,0.7-4.5,1-6.7l3,0.8c-2.1-5.1-6.6,3.3-9.9-0.2c-1.3-2.7-1-6-0.2-8.8
		c1.3-3.1,5.1-3,7.1-0.8C166.2,56.5,166.1,53.9,166.1,52.6 M162.1,65.8c1.1-1.3,2.1-2.6,3.2-3.9c-0.8-1.2-1.6-2.5-2.3-3.7
		C162.6,60.7,162.3,63.3,162.1,65.8L162.1,65.8z"/>
	<path class="st0" d="M123.1,69.4c-2.5-5.6-1.6-13.6,3.8-16.7c0.7,0.9,1.4,1.8,2.1,2.7c-3.4,4.2-3.3,10.6-1,15.4
		c3.1-4,0.2-9.3,1.2-13.4c3.3-0.2,6.5-0.4,9.8-0.9c-2.1,1.8-4.9,1.7-7.4,2.1c0.6,3.2,1.8,6.5,1.2,9.9
		C131.1,72.5,125.1,73.5,123.1,69.4z"/>
	<path class="st0" d="M142.4,69.7c-2.7-5.6-1.9-13.5,3.4-17l2.4,2.5c-3.1,4.1-4.2,11.4-0.3,15.3c1-4.3,0.9-8.7-0.3-12.9
		c3.3-0.1,6.5-0.5,9.7-1.2c0,0.3,0,0.9,0.1,1.2c-2.2,0.3-4.4,0.6-6.7,0.9c0.8,2.9,1.2,5.9,1.3,8.9C151.5,72.2,144.7,73.8,142.4,69.7
		z"/>
	<path class="st0" d="M135.6,16.7c1-1.4,3.4-3.6,5-1.9c1.2,3.8-0.5,7.8-3.3,10.2c0,2.3,0.6,4.6,1.7,6.5c1.8-2.2,3.8-4.3,5.8-6.3
		c-1.2,2.7-2.7,5.3-4.4,7.6c-2-0.7-4.7-0.7-5.8-3.1C133,25.6,133.9,20.7,135.6,16.7 M138.6,16.6c-1.3,0.9-1.7,2.7-1,4.1
		C139.5,21.5,140.8,16.7,138.6,16.6L138.6,16.6z"/>
	<path class="st0" d="M73,56.7c1.3-1.8,5.5-4.2,5.5,0.4l-3.2-0.8c0,1.8,0,3.6,0.2,5.4l0.6-3.8c0.7,0.9,1.3,1.8,2,2.7
		c-1.2,1.7-2.4,3.4-3.7,5c0.3,2.2,0.9,4.3,1.7,6.3c1.9-2.1,3.7-4.3,5.8-6.3c-1.2,2.6-2.1,5.8-4.6,7.3c-2.1-0.1-4.8-0.7-5.6-3.2
		C70.5,65.4,70.9,60.7,73,56.7z"/>
</g>
<path class="st1" d="M51.8,38.3c0,7-2.4,13.8-6.9,18.9c-0.1,0.1-0.7,0-0.8,0.1c-1.7,2.1-3.8,3.8-6,5.1c-0.2,0.1-0.6,0.8-0.8,0.9
	c-2.4,1.3-4.9,2.1-7.6,2.5c-0.4,0.1-0.7-0.8-1-0.7c-1.8,0.1-3.7,0.1-5.5,0c-0.3,0-0.7,0.8-1,0.7c-2.6-0.4-5.2-1.3-7.6-2.5
	c-0.3-0.1-0.5-2-0.8-2.2c-2.3-1.3-4.2-2.2-6.1-4.3c-0.2-0.2-0.6,0.6-0.8,0.4C-2.8,46-2.2,28.3,8.3,17.9s26.9-9.8,36.6,1.5
	C49.3,24.5,51.8,31.3,51.8,38.3L51.8,38.3z"/>
<path class="st2" d="M47.4,33.1c0,10.8-8.1,19.5-18.1,19.6c-10,0-18.2-8.7-18.2-19.5c0-10.8,8.1-19.5,18.1-19.6c0,0,0,0,0,0
	C39.3,13.6,47.4,22.3,47.4,33.1z"/>
<path class="st3" d="M14.5,38.4v24.9c-1.3-0.7-2.5-1.4-3.6-2.3c-0.1-0.1-0.1-0.4-0.2-0.5c-0.4-0.3-0.5-0.5-0.8-0.8
	c-0.2-0.1-0.8-0.2-0.9-0.3c-0.7-0.7-1.4-1.4-2.1-2.2v-1.1c0.3-0.2,0.3-0.7,0.1-1C7,55.1,7,55,6.9,55v-1.1l0.2-0.2
	c0.2-0.2,0.2-0.6,0-0.8l-0.3-0.5v-2.8l0.2-0.4c0.2-0.2,0.2-0.6,0-0.8L6.8,48v-2.1c0.3-0.3,0.3-0.7,0.1-1l0-0.1v-1.1l0.2-0.4
	c0.2-0.2,0.2-0.6,0-0.8L6.8,42v-3.6L14.5,38.4z"/>
<path class="st4" d="M18.2,36.8l-3.7,4v15.3c0,1.5-1.1,2.7-2.5,2.7c-0.7,0-1.3-0.3-1.7-0.8l0,0c-0.5-0.5-0.7-1.2-0.7-1.9v-9.8
	c0-1.8-0.7-3.4-1.9-4.6l0,0l-4.5-4.8c-0.8-0.7-0.9-2-0.3-2.9s1.9-1,2.7-0.3l0,0v-1.3c0-1.1,0.8-2,1.8-2c0.5,0,1,0.2,1.4,0.5
	c0.1-1.1,1-2,2-1.9c0.9,0.1,1.7,0.9,1.8,1.9c0.4-0.4,0.9-0.5,1.4-0.5c1,0.1,1.8,1,1.8,2.1v1.2l0,0c0.9-0.7,2-0.5,2.7,0.5
	C19,34.9,18.9,36.1,18.2,36.8L18.2,36.8z"/>
<path class="st5" d="M6.9,55.1h3c0.3,0,0.5,0.2,0.5,0.6c0,0.3-0.2,0.6-0.5,0.6l0,0h-3V55.1z M10.9,61h1c0.3,0,0.5-0.2,0.5-0.5l0,0
	V60c0-0.3-0.2-0.5-0.5-0.5h0H9C9.6,60,10.3,60.5,10.9,61z M6.9,54h3c0.3,0,0.5-0.2,0.5-0.5l0,0v-0.5c0-0.3-0.2-0.5-0.5-0.5h0h-3V54z
	 M6.9,49.6h3c0.3,0,0.5-0.2,0.5-0.5l0,0v-0.5c0-0.3-0.2-0.5-0.5-0.5h0h-3V49.6z M6.9,42v1.6h3c0.3,0,0.5-0.2,0.5-0.5l0,0v-0.6
	c0-0.3-0.2-0.5-0.5-0.5h0L6.9,42z M6.9,45.8h3c0.3,0,0.5-0.2,0.5-0.6c0-0.3-0.2-0.6-0.5-0.6l0,0h-3V45.8z"/>
<path class="st6" d="M9.5,55.1h5v1.1h-5c-0.3,0-0.5-0.2-0.5-0.6C9,55.3,9.2,55.1,9.5,55.1z M11.1,60.2c0,0.4,0.3,0.8,0.8,0.8h2.6
	v-1.6h-2.6C11.5,59.4,11.1,59.8,11.1,60.2z M9,53.2C9,53.6,9.3,54,9.7,54h4.8v-1.6H9.7C9.3,52.3,9,52.7,9,53.2z M9.7,42
	c-0.4,0.1-0.7,0.5-0.7,0.9c0,0.4,0.3,0.7,0.7,0.7h4.8V42L9.7,42z M9,45.3c0,0.3,0.2,0.5,0.5,0.5h0h5v-1.1h-5C9.2,44.8,9,45,9,45.3
	L9,45.3z M9,48.8c0,0.4,0.3,0.8,0.8,0.8h4.8V48H9.7C9.3,48,9,48.4,9,48.8L9,48.8z"/>
<path class="st7" d="M29.7,18.3v47.5c-2.5,0.4-5.1,0.4-7.6,0V18.3H29.7z"/>
<path class="st8" d="M33.4,18.5l-3.7,3.9V53c0,1.4-1,2.5-2.3,2.5c0,0-0.1,0-0.1,0h-0.1C26,55.4,25,54.3,25,53V28.7
	c0-2.1-0.8-4.1-2.2-5.6l0,0l-4.4-4.7c-0.7-0.8-0.8-2-0.1-2.9c0.6-0.8,1.7-0.9,2.5-0.3v-1.4c0-1.1,0.9-2.1,1.9-2
	c0.5,0,0.9,0.2,1.3,0.5c0.1-1.1,1-2,2-1.9c0.9,0.1,1.7,0.9,1.8,1.9c0.8-0.8,2-0.7,2.7,0.2c0.3,0.4,0.5,0.9,0.5,1.4v1.3
	c0.8-0.6,1.9-0.5,2.5,0.3C34.2,16.4,34.1,17.7,33.4,18.5z"/>
<path class="st9" d="M23.1,20.5c0-0.8,0.6-1.4,1.3-1.4c0.7,0,1.3,0.6,1.3,1.4c0,0.8-0.6,1.4-1.3,1.4l0,0
	C23.6,21.9,23.1,21.3,23.1,20.5z M26.3,31.7c0-2.1-1.6-3.8-3.5-3.8c-0.2,0-0.5,0-0.7,0.1v7.5c0.2,0,0.5,0.1,0.7,0.1
	C24.7,35.5,26.3,33.8,26.3,31.7z M26.8,26.8c0.8,0,1.5-0.7,1.5-1.6s-0.7-1.6-1.5-1.6s-1.5,0.7-1.5,1.6c0,0,0,0,0,0
	C25.3,26,25.9,26.8,26.8,26.8C26.8,26.8,26.8,26.8,26.8,26.8L26.8,26.8z M25.9,56c1.1-0.3,1.7-1.6,1.4-2.8c-0.3-1.2-1.5-1.9-2.6-1.5
	c-0.9,0.3-1.5,1.2-1.5,2.2l0,0c-0.2,0-0.3,0-0.5,0c-0.2,0-0.5,0-0.7,0.1v7.5c0.2,0,0.5,0.1,0.7,0.1c2,0,3.5-1.7,3.5-3.8
	C26.3,57.1,26.1,56.5,25.9,56L25.9,56z M26.5,62.1c-0.7,0-1.3,0.6-1.3,1.4c0,0.8,0.6,1.4,1.3,1.4c0.7,0,1.3-0.6,1.3-1.4
	C27.8,62.7,27.2,62.1,26.5,62.1L26.5,62.1z M28.7,37c-2.3,0.1-4.1,2.2-4,4.6c0.1,1.7,1,3.1,2.4,3.8c-0.1,0.3-0.1,0.7-0.1,1
	c0,1.7,1.2,3.1,2.8,3.2V37.2C29.4,37,29,37,28.7,37z"/>
<path class="st10" d="M44.9,34.5v22.7c-2.2,2.5-4.8,4.6-7.6,6.1V34.5H44.9z"/>
<path class="st11" d="M48.6,32.9l-3.7,3.9v15.5c0,0.8-0.4,1.5-0.9,2l0,0c-1,0.8-2.4,0.5-3.1-0.6c-0.3-0.4-0.4-0.9-0.4-1.4v-8.8
	c0-2.2-0.9-4.3-2.4-5.9l0,0l-4.4-4.8c-0.7-0.8-0.7-2.1,0-2.9c0.6-0.7,1.7-0.8,2.4-0.2v-1.4c0-1.1,0.9-2,1.9-2c0.5,0,0.9,0.2,1.3,0.5
	c0.1-1.1,1-2,2-1.9c0.9,0.1,1.7,0.9,1.8,1.9c0.3-0.3,0.8-0.5,1.3-0.5c1.1,0,1.9,0.9,1.9,2v1.4c0.8-0.6,1.9-0.5,2.5,0.3
	C49.4,30.9,49.4,32.2,48.6,32.9L48.6,32.9z"/>
<path class="st12" d="M14.3,37.6c0,0.9-0.7,1.6-1.5,1.6c0,0,0,0,0,0H8.6c-0.8-0.1-1.5-0.9-1.4-1.8c0.1-0.8,0.7-1.4,1.4-1.5h0.6
	c0.2-0.7,0.8-1.1,1.4-1.1h0.2c0.6,0,1.2,0.5,1.4,1.1h0.6C13.7,35.9,14.3,36.7,14.3,37.6L14.3,37.6z M20.3,16.1
	c-0.3-0.5-0.9-0.7-1.4-0.3c-0.5,0.3-0.6,1-0.3,1.5c0.1,0.1,0.2,0.3,0.3,0.3l0.7,0.8c0.3,0.5,0.9,0.7,1.4,0.3s0.6-1,0.3-1.5
	c-0.1-0.1-0.2-0.3-0.3-0.3L20.3,16.1z M10.7,33.6c0.6,0,1-0.5,1-1.1v-1.1c0-0.6-0.5-1.1-1-1.1c-0.6,0-1,0.5-1,1.1v1.1
	C9.7,33.1,10.1,33.6,10.7,33.6z M5.1,34.7c-0.3-0.5-0.9-0.7-1.4-0.3c-0.5,0.3-0.6,1-0.3,1.5c0.1,0.1,0.2,0.3,0.3,0.3L4.4,37
	c0.3,0.5,0.9,0.7,1.4,0.3c0.5-0.3,0.6-1,0.3-1.5c-0.1-0.1-0.2-0.3-0.3-0.3L5.1,34.7z M8.1,34.6c0.5-0.2,0.8-0.8,0.7-1.3l-0.3-1
	c-0.2-0.6-0.7-0.9-1.2-0.7c-0.5,0.2-0.8,0.8-0.7,1.3l0.3,1C7,34.5,7.6,34.8,8.1,34.6L8.1,34.6z M38.5,30.7c0.5-0.2,0.8-0.7,0.7-1.3
	l-0.3-1c0-0.6-0.5-1.1-1.1-1.1c-0.6,0-1,0.5-1,1.1c0,0.2,0,0.3,0.1,0.5l0.3,1C37.4,30.5,37.9,30.9,38.5,30.7L38.5,30.7z M23.3,16
	c0.5-0.2,0.9-0.8,0.7-1.3l-0.3-1c-0.3-0.5-0.9-0.7-1.4-0.5c-0.3,0.2-0.6,0.6-0.5,1l0.3,1.1C22.2,15.8,22.8,16.2,23.3,16z M43.2,32
	h-0.6c-0.2-0.7-0.8-1.1-1.4-1.1H41c-0.6,0-1.2,0.5-1.4,1.1h-0.6c-0.8,0.1-1.5,0.9-1.4,1.8c0.1,0.8,0.7,1.4,1.4,1.5h4.3
	c0.8-0.1,1.5-0.9,1.4-1.8C44.5,32.7,43.9,32.1,43.2,32z M28,17.3h-0.6c-0.2-0.7-0.8-1.1-1.4-1.1h-0.2c-0.7,0-1.2,0.4-1.4,1.1h-0.6
	c-0.8,0.1-1.5,0.9-1.4,1.8c0.1,0.8,0.7,1.4,1.4,1.5H28c0.8-0.1,1.5-0.9,1.4-1.8C29.4,18,28.8,17.4,28,17.3z M35.6,30.8
	c-0.5-0.3-1.1-0.2-1.4,0.3c-0.2,0.4-0.2,0.8,0,1.2l0.7,0.8c0.4,0.4,1,0.4,1.4,0c0.4-0.4,0.4-1.1,0-1.5L35.6,30.8z"/>
<path class="st13" d="M26.9,12.8V14c0.1,0.6-0.2,1.2-0.8,1.3c-0.6,0.1-1.1-0.2-1.2-0.8c0-0.2,0-0.3,0-0.5v-1.1
	c-0.1-0.6,0.2-1.2,0.8-1.3c0.6-0.1,1.1,0.2,1.2,0.8C26.9,12.5,26.9,12.7,26.9,12.8z M29.2,12.8c-0.5-0.1-1.1,0.2-1.2,0.8l-0.3,1
	c0,0.6,0.4,1.1,1,1.2c0.4,0,0.8-0.2,1-0.6l0.3-1.1C30.1,13.6,29.8,13.1,29.2,12.8L29.2,12.8z M16.2,34.7l-0.7,0.8
	c-0.5,0.4-0.6,1-0.3,1.6c0.3,0.5,1,0.6,1.4,0.3c0.1-0.1,0.2-0.2,0.2-0.3l0.7-0.8c0.3-0.5,0.2-1.2-0.2-1.6
	C17.1,34.5,16.6,34.5,16.2,34.7z M14.1,31.5c-0.5-0.1-1.1,0.2-1.2,0.8l-0.3,1c-0.1,0.6,0.2,1.2,0.7,1.3c0.5,0.1,1.1-0.2,1.2-0.8
	l0.3-1C14.9,32.3,14.6,31.7,14.1,31.5z M48.1,30.8c-0.4-0.4-1-0.4-1.4,0l-0.7,0.8c-0.4,0.4-0.4,1.1,0,1.5c0.4,0.4,1,0.4,1.4,0
	l0.7-0.8C48.4,32,48.4,31.3,48.1,30.8z M44.4,27.6c-0.5-0.1-1.1,0.2-1.2,0.8l-0.3,1c0,0.6,0.4,1.1,1,1.2c0.4,0,0.8-0.2,1-0.6l0.3-1
	C45.3,28.4,45,27.8,44.4,27.6z M41.1,26.5c-0.6,0-1,0.5-1,1.1v1.1c-0.1,0.6,0.2,1.2,0.8,1.3c0.6,0.1,1.1-0.2,1.2-0.8
	c0-0.2,0-0.3,0-0.5v-1.1C42.1,27,41.6,26.5,41.1,26.5L41.1,26.5z M31.4,16.2l-0.7,0.8c-0.5,0.4-0.6,1.1-0.2,1.6
	c0.3,0.5,1,0.6,1.4,0.3c0.1-0.1,0.2-0.2,0.3-0.3l0.7-0.8c0.3-0.5,0.2-1.2-0.3-1.5C32.2,15.9,31.8,15.9,31.4,16.2L31.4,16.2z"/>
</svg>
